<svg width="21" height="21" viewBox="0 0 21 21" fill="none" xmlns="http://www.w3.org/2000/svg">
<path d="M10.8606 21C16.4605 21 21 16.299 21 10.5C21 4.70101 16.4605 0 10.8606 0C5.26077 0 0.721191 4.70101 0.721191 10.5C0.721191 16.299 5.26077 21 10.8606 21Z" fill="#F53E6A"/>
<path fill-rule="evenodd" clip-rule="evenodd" d="M11.1347 4.71802C8.20702 4.71802 5.8252 7.18454 5.8252 10.2163C5.8252 13.2481 8.20702 15.7146 11.1347 15.7146C14.0624 15.7146 16.4442 13.2481 16.4442 10.2163C16.4442 7.18454 14.0624 4.71802 11.1347 4.71802ZM14.6452 7.25354C15.2768 8.0527 15.6593 9.07058 15.6693 10.1791C15.5198 10.1463 14.0204 9.83138 12.5114 10.0279C12.3882 9.71661 12.272 9.44276 12.1128 9.1053C13.7896 8.39635 14.5496 7.38747 14.6452 7.25354ZM11.7643 8.40699C13.3769 7.78104 14.0596 6.83083 14.1412 6.71051C13.0258 5.68581 11.5103 5.29864 10.0721 5.65765C10.1974 5.83147 11.0211 6.99303 11.7643 8.40699ZM9.20655 5.9732C9.32612 6.143 10.1365 7.30601 10.888 8.6893C8.76659 9.27267 6.89814 9.26427 6.69531 9.2615C6.98939 7.80416 7.93778 6.59293 9.20655 5.9732ZM6.60191 10.0799C6.60051 10.1276 6.59959 10.1754 6.59959 10.2234C6.59959 11.4297 7.04114 12.531 7.76548 13.3636C8.50061 12.0604 9.99058 10.6869 11.6305 10.2086C11.5167 9.94176 11.3927 9.67467 11.2628 9.41155C8.99803 10.1134 6.80033 10.0841 6.60191 10.0799ZM8.35089 13.9286C8.82461 12.9257 10.1103 11.6312 11.9386 10.9853C12.5753 12.6987 12.8387 14.1347 12.9061 14.5467C11.4479 15.19 9.69438 15.0135 8.35089 13.9286ZM12.7876 10.7683C13.3808 12.4562 13.6222 13.8311 13.6687 14.1168C14.6861 13.4043 15.4104 12.2758 15.6125 10.969C15.4574 10.9183 14.2088 10.5327 12.7876 10.7683Z" fill="white"/>
<mask id="mask0" mask-type="alpha" maskUnits="userSpaceOnUse" x="5" y="4" width="12" height="12">
<path fill-rule="evenodd" clip-rule="evenodd" d="M11.1347 4.71802C8.20702 4.71802 5.8252 7.18454 5.8252 10.2163C5.8252 13.2481 8.20702 15.7146 11.1347 15.7146C14.0624 15.7146 16.4442 13.2481 16.4442 10.2163C16.4442 7.18454 14.0624 4.71802 11.1347 4.71802ZM14.6452 7.25354C15.2768 8.0527 15.6593 9.07058 15.6693 10.1791C15.5198 10.1463 14.0204 9.83138 12.5114 10.0279C12.3882 9.71661 12.272 9.44276 12.1128 9.1053C13.7896 8.39635 14.5496 7.38747 14.6452 7.25354ZM11.7643 8.40699C13.3769 7.78104 14.0596 6.83083 14.1412 6.71051C13.0258 5.68581 11.5103 5.29864 10.0721 5.65765C10.1974 5.83147 11.0211 6.99303 11.7643 8.40699ZM9.20655 5.9732C9.32612 6.143 10.1365 7.30601 10.888 8.6893C8.76659 9.27267 6.89814 9.26427 6.69531 9.2615C6.98939 7.80416 7.93778 6.59293 9.20655 5.9732ZM6.60191 10.0799C6.60051 10.1276 6.59959 10.1754 6.59959 10.2234C6.59959 11.4297 7.04114 12.531 7.76548 13.3636C8.50061 12.0604 9.99058 10.6869 11.6305 10.2086C11.5167 9.94176 11.3927 9.67467 11.2628 9.41155C8.99803 10.1134 6.80033 10.0841 6.60191 10.0799ZM8.35089 13.9286C8.82461 12.9257 10.1103 11.6312 11.9386 10.9853C12.5753 12.6987 12.8387 14.1347 12.9061 14.5467C11.4479 15.19 9.69438 15.0135 8.35089 13.9286ZM12.7876 10.7683C13.3808 12.4562 13.6222 13.8311 13.6687 14.1168C14.6861 13.4043 15.4104 12.2758 15.6125 10.969C15.4574 10.9183 14.2088 10.5327 12.7876 10.7683Z" fill="white"/>
</mask>
<g mask="url(#mask0)">
</g>
</svg>
