<svg width="160" height="39" viewBox="0 0 160 39" fill="none" xmlns="http://www.w3.org/2000/svg">
<path fill-rule="evenodd" clip-rule="evenodd" d="M129.139 24.444C127.15 23.1881 127.688 20.43 129.316 19.1606C128.704 23.3254 133.86 21.5549 135.91 20.8266C135.986 20.7997 136.077 20.77 136.178 20.7371C136.899 20.5024 138.135 20.0999 138.016 19.327C137.673 17.0942 135.019 17.451 132.613 17.7742C131.302 17.9504 130.065 18.1166 129.316 17.8481C122.319 15.3364 125.741 6.36424 129.354 2.54849C132.683 -0.966769 138.771 -0.0441913 142.984 0.658567C144.433 0.900249 146.804 1.66159 147.998 2.30388C150.218 3.49701 150.952 4.95087 151.1 6.55587C151.195 7.58779 150.359 8.79375 149.737 9.69162C149.656 9.80895 149.578 9.92101 149.507 10.0267C148.358 11.7272 146.939 13.1312 145.517 14.5377C144.546 15.4978 143.575 16.459 142.687 17.5165C142.778 17.4447 142.869 17.3729 142.96 17.3012C146.153 14.7894 149.275 12.3322 151.597 8.93068C153.414 6.26871 154.354 4.48815 151.662 2.3543C152.313 2.02969 152.944 1.74142 153.676 1.66159C158.722 1.11228 156.128 7.51018 154.847 9.66139C154.761 9.80541 154.653 9.96045 154.54 10.1234C154.136 10.7065 153.661 11.3911 153.859 12.0362C154.204 13.1616 155.632 14.0072 157.007 14.8217C158.586 15.7572 160.096 16.6517 159.819 17.8824C159.498 19.3051 158.109 20.5013 156.988 21.4667C156.857 21.5799 156.729 21.6901 156.607 21.797C154.724 23.4471 152.739 24.775 150.727 26.1211C149.76 26.7679 148.786 27.4189 147.815 28.1118C148.865 27.7524 149.881 27.2977 150.894 26.8441C151.935 26.3783 152.973 25.9136 154.043 25.5543C154.014 27.5903 153.038 28.7259 151.959 29.9818C151.492 30.5261 151.005 31.0929 150.567 31.7653C150.133 32.4322 149.803 33.2289 149.473 34.0258C148.595 36.1441 147.717 38.2637 144.885 37.9497C140.239 37.4346 140.314 31.48 140.359 27.9596C140.362 27.6904 140.365 27.4355 140.366 27.1984C140.368 26.8592 140.168 26.4531 139.969 26.0462C139.706 25.5105 139.442 24.9734 139.635 24.5859C139.964 23.9243 141.192 23.3315 142.255 22.8187C142.793 22.559 143.288 22.3198 143.603 22.1026C145.958 20.4766 147.706 18.4586 149.464 16.2378C148.806 16.7118 148.151 17.1946 147.495 17.6779C143.23 20.8218 138.936 23.9874 133.529 24.9162C132.19 25.1462 130.325 25.1933 129.139 24.444ZM126.462 11.915C126.616 7.13551 129.986 -1.53541 142.229 2.01683C137.654 1.27678 128.094 2.22034 126.462 11.915Z" fill="url(#paint0_linear)"/>
<path d="M6.53871 23.3196C7.33743 23.3196 7.99401 23.4347 8.50844 23.6648C9.02287 23.8814 9.58469 24.2063 10.1939 24.6395C10.3699 24.7749 10.5052 24.8426 10.6 24.8426C10.8572 24.8426 11.0265 24.4297 11.1077 23.6039H11.5747C11.5206 24.4838 11.4935 26.0407 11.4935 28.2744H11.0265C10.9046 27.5569 10.776 26.968 10.6406 26.5077C10.5052 26.0339 10.2954 25.621 10.0111 25.269C9.61853 24.7817 9.1041 24.3958 8.46783 24.1115C7.84509 23.8272 7.18851 23.6851 6.49809 23.6851C5.6046 23.6851 4.81942 23.9762 4.14253 24.5583C3.46565 25.1404 2.94445 25.973 2.57893 27.056C2.21341 28.1255 2.03065 29.3777 2.03065 30.8127C2.03065 33.2495 2.41648 35.0365 3.18813 36.1736C3.97331 37.2972 5.19847 37.8591 6.86361 37.8591C7.67587 37.8591 8.37983 37.6492 8.97549 37.2296C9.21917 37.0671 9.37485 36.9114 9.44254 36.7625C9.52377 36.6001 9.56438 36.3835 9.56438 36.1127V34.1633C9.56438 33.5947 9.51023 33.1818 9.40193 32.9246C9.29362 32.6674 9.1041 32.4914 8.83334 32.3966C8.56259 32.3018 8.12261 32.2409 7.51342 32.2138V31.8077C8.21738 31.8483 9.17179 31.8686 10.3766 31.8686C11.2972 31.8686 12.0012 31.8483 12.4885 31.8077V32.2138C12.1772 32.2409 11.947 32.2951 11.7981 32.3763C11.6627 32.4575 11.568 32.6132 11.5138 32.8433C11.4732 33.0735 11.4529 33.4458 11.4529 33.9602V37.9809H11.0468C11.0332 37.7101 10.9791 37.4529 10.8843 37.2093C10.7895 36.952 10.6609 36.8234 10.4985 36.8234C10.4173 36.8234 10.336 36.8437 10.2548 36.8843C10.1736 36.925 10.0314 37.0197 9.82836 37.1686C9.35454 37.5342 8.86042 37.8049 8.34599 37.9809C7.84509 38.1704 7.28328 38.2652 6.66054 38.2652C5.26616 38.2652 4.06808 37.9809 3.06629 37.4123C2.07804 36.8302 1.31992 35.9976 0.791955 34.9146C0.263985 33.8316 0 32.5387 0 31.0361C0 29.4928 0.277523 28.139 0.832568 26.9748C1.40115 25.797 2.17957 24.8967 3.16782 24.274C4.15607 23.6377 5.2797 23.3196 6.53871 23.3196Z" fill="#5C5C5C"/>
<path d="M20.7152 23.3196C22.0013 23.3196 23.1249 23.6106 24.0861 24.1928C25.0608 24.7749 25.8121 25.621 26.3401 26.7311C26.8816 27.8276 27.1524 29.1408 27.1524 30.6705C27.1524 32.1597 26.8749 33.4796 26.3198 34.6303C25.7783 35.781 25.0134 36.6745 24.0252 37.3108C23.0505 37.9471 21.9404 38.2652 20.6949 38.2652C19.4088 38.2652 18.2784 37.9741 17.3037 37.392C16.3425 36.8099 15.5912 35.9706 15.0497 34.874C14.5217 33.7639 14.2577 32.444 14.2577 30.9142C14.2577 29.4251 14.5285 28.1052 15.07 26.9545C15.625 25.8037 16.3899 24.9103 17.3646 24.274C18.3529 23.6377 19.4697 23.3196 20.7152 23.3196ZM20.634 23.6851C19.7676 23.6851 19.0027 23.9897 18.3393 24.5989C17.6895 25.1946 17.1819 26.0339 16.8164 27.1169C16.4644 28.1999 16.2884 29.4386 16.2884 30.833C16.2884 32.2409 16.4847 33.4796 16.8773 34.5491C17.2834 35.6186 17.8249 36.4444 18.5018 37.0265C19.1787 37.6086 19.9368 37.8997 20.7761 37.8997C21.6425 37.8997 22.4007 37.6018 23.0505 37.0062C23.7138 36.397 24.2215 35.5509 24.5735 34.4679C24.939 33.3849 25.1217 32.1462 25.1217 30.7518C25.1217 29.3439 24.9187 28.1052 24.5125 27.0357C24.1199 25.9662 23.5852 25.1404 22.9083 24.5583C22.2314 23.9762 21.4733 23.6851 20.634 23.6851Z" fill="#5C5C5C"/>
<path d="M35.8682 23.3196C36.6669 23.3196 37.3235 23.4347 37.8379 23.6648C38.3523 23.8814 38.9141 24.2063 39.5233 24.6395C39.6993 24.7749 39.8347 24.8426 39.9295 24.8426C40.1867 24.8426 40.3559 24.4297 40.4371 23.6039H40.9042C40.85 24.4838 40.823 26.0407 40.823 28.2744H40.3559C40.2341 27.5569 40.1055 26.968 39.9701 26.5077C39.8347 26.0339 39.6249 25.621 39.3406 25.269C38.948 24.7817 38.4336 24.3958 37.7973 24.1115C37.1746 23.8272 36.518 23.6851 35.8276 23.6851C34.9341 23.6851 34.1489 23.9762 33.472 24.5583C32.7951 25.1404 32.2739 25.973 31.9084 27.056C31.5429 28.1255 31.3601 29.3777 31.3601 30.8127C31.3601 33.2495 31.7459 35.0365 32.5176 36.1736C33.3028 37.2972 34.5279 37.8591 36.1931 37.8591C37.0053 37.8591 37.7093 37.6492 38.305 37.2296C38.5486 37.0671 38.7043 36.9114 38.772 36.7625C38.8532 36.6001 38.8938 36.3835 38.8938 36.1127V34.1633C38.8938 33.5947 38.8397 33.1818 38.7314 32.9246C38.6231 32.6674 38.4336 32.4914 38.1628 32.3966C37.8921 32.3018 37.4521 32.2409 36.8429 32.2138V31.8077C37.5468 31.8483 38.5012 31.8686 39.7061 31.8686C40.6267 31.8686 41.3306 31.8483 41.818 31.8077V32.2138C41.5066 32.2409 41.2765 32.2951 41.1276 32.3763C40.9922 32.4575 40.8974 32.6132 40.8433 32.8433C40.8027 33.0735 40.7823 33.4458 40.7823 33.9602V37.9809H40.3762C40.3627 37.7101 40.3085 37.4529 40.2138 37.2093C40.119 36.952 39.9904 36.8234 39.8279 36.8234C39.7467 36.8234 39.6655 36.8437 39.5843 36.8843C39.503 36.925 39.3609 37.0197 39.1578 37.1686C38.684 37.5342 38.1899 37.8049 37.6754 37.9809C37.1746 38.1704 36.6127 38.2652 35.99 38.2652C34.5956 38.2652 33.3975 37.9809 32.3957 37.4123C31.4075 36.8302 30.6494 35.9976 30.1214 34.9146C29.5934 33.8316 29.3295 32.5387 29.3295 31.0361C29.3295 29.4928 29.607 28.139 30.162 26.9748C30.7306 25.797 31.509 24.8967 32.4973 24.274C33.4855 23.6377 34.6092 23.3196 35.8682 23.3196Z" fill="#5C5C5C"/>
<path d="M53.7608 35.3817C53.7608 36.1533 53.8081 37.0197 53.9029 37.9809C52.9823 37.9403 51.4323 37.92 49.2527 37.92C46.6535 37.92 44.6905 37.9403 43.3638 37.9809V37.5748C43.8512 37.5477 44.2032 37.4935 44.4198 37.4123C44.6499 37.3311 44.8056 37.1754 44.8868 36.9453C44.968 36.7151 45.0086 36.3428 45.0086 35.8284V25.7564C45.0086 25.2419 44.968 24.8696 44.8868 24.6395C44.8056 24.4094 44.6499 24.2537 44.4198 24.1725C44.2032 24.0912 43.8512 24.0371 43.3638 24.01V23.6039C44.6905 23.6445 46.6535 23.6648 49.2527 23.6648C51.2428 23.6648 52.6574 23.6445 53.4968 23.6039C53.402 24.4974 53.3546 25.2961 53.3546 26C53.3546 26.528 53.3749 26.9477 53.4156 27.259H52.9485C52.8537 26.3791 52.7319 25.7293 52.583 25.3096C52.4341 24.8764 52.1836 24.565 51.8316 24.3755C51.4797 24.1725 50.9449 24.0709 50.2274 24.0709H48.542C48.0546 24.0709 47.6959 24.1115 47.4657 24.1928C47.2491 24.2605 47.1002 24.4094 47.019 24.6395C46.9378 24.8696 46.8972 25.2419 46.8972 25.7564V30.5487H48.2374C48.7112 30.5487 49.0767 30.4404 49.3339 30.2238C49.5912 29.9937 49.7604 29.7297 49.8416 29.4318C49.9364 29.1205 50.0108 28.7347 50.065 28.2744L50.1259 27.8682H50.5929C50.5523 28.4368 50.532 29.0731 50.532 29.7771V30.7518C50.532 31.4422 50.5726 32.4034 50.6539 33.6353H50.1868C50.1733 33.5405 50.1327 33.2156 50.065 32.6606C49.9973 32.092 49.8078 31.6656 49.4964 31.3813C49.1986 31.097 48.7789 30.9548 48.2374 30.9548H46.8972V35.8284C46.8972 36.3428 46.9378 36.7151 47.019 36.9453C47.1002 37.1754 47.2491 37.3311 47.4657 37.4123C47.6959 37.48 48.0546 37.5138 48.542 37.5138H50.0244C50.8637 37.5138 51.5 37.4055 51.9332 37.1889C52.3799 36.9588 52.7048 36.6001 52.9079 36.1127C53.111 35.6118 53.2599 34.8808 53.3546 33.9196H53.8217C53.7811 34.2851 53.7608 34.7725 53.7608 35.3817Z" fill="#5C5C5C"/>
<path d="M71.4562 36.2752C71.7812 37.1145 72.2482 37.5477 72.8574 37.5748V37.9809C72.3159 37.9403 71.5916 37.92 70.6846 37.92C69.5204 37.92 68.6539 37.9403 68.0854 37.9809V37.5748C68.5998 37.5477 68.9653 37.4868 69.1819 37.392C69.4121 37.2837 69.5271 37.0942 69.5271 36.8234C69.5271 36.5933 69.4459 36.2752 69.2834 35.869L68.0448 32.5387H63.1306L62.298 34.6912C62.0272 35.4223 61.8919 35.9773 61.8919 36.3564C61.8919 36.776 62.034 37.0806 62.3183 37.2702C62.6161 37.4597 63.0629 37.5612 63.6585 37.5748V37.9809C62.8869 37.9403 62.1085 37.92 61.3233 37.92C60.7141 37.92 60.2064 37.9403 59.8003 37.9809V37.5748C60.4772 37.4123 61.0119 36.8234 61.4045 35.8081L66.1765 23.5023H66.5015L71.4562 36.2752ZM67.8823 32.1326L65.608 26.061L63.293 32.1326H67.8823Z" fill="url(#paint1_linear)"/>
<path d="M83.3224 23.6039C83.2276 24.565 83.1803 25.4315 83.1803 26.2031C83.1803 26.88 83.2006 27.435 83.2412 27.8682H82.7741C82.6658 26.8258 82.5305 26.0542 82.368 25.5533C82.2055 25.0389 81.9213 24.6666 81.5151 24.4364C81.109 24.1928 80.4863 24.0709 79.6469 24.0709H78.3676C77.8803 24.0709 77.5215 24.1115 77.2914 24.1928C77.0748 24.2605 76.9258 24.4094 76.8446 24.6395C76.7634 24.8696 76.7228 25.2419 76.7228 25.7564V30.7518H78.2052C78.679 30.7518 79.0445 30.6435 79.3017 30.4269C79.5589 30.1967 79.7282 29.9327 79.8094 29.6349C79.9041 29.3235 79.9786 28.9377 80.0327 28.4774L80.0937 28.0713H80.5607C80.5201 28.6399 80.4998 29.2762 80.4998 29.9801V30.9548C80.4998 31.6453 80.5404 32.6064 80.6216 33.8384H80.1546C80.1411 33.7436 80.1004 33.4187 80.0327 32.8637C79.9651 32.2951 79.7755 31.8686 79.4642 31.5843C79.1663 31.3 78.7467 31.1579 78.2052 31.1579H76.7228V35.8284C76.7228 36.3428 76.7769 36.7151 76.8852 36.9453C76.9935 37.1754 77.1831 37.3311 77.4538 37.4123C77.7246 37.4935 78.1645 37.5477 78.7737 37.5748V37.9809C78.0698 37.9403 77.0748 37.92 75.7887 37.92C74.6244 37.92 73.758 37.9403 73.1894 37.9809V37.5748C73.6768 37.5477 74.0288 37.4935 74.2454 37.4123C74.4755 37.3311 74.6312 37.1754 74.7124 36.9453C74.7937 36.7151 74.8343 36.3428 74.8343 35.8284V25.7564C74.8343 25.2419 74.7937 24.8696 74.7124 24.6395C74.6312 24.4094 74.4755 24.2537 74.2454 24.1725C74.0288 24.0912 73.6768 24.0371 73.1894 24.01V23.6039C74.5161 23.6445 76.4791 23.6648 79.0783 23.6648C81.0684 23.6648 82.4831 23.6445 83.3224 23.6039Z" fill="url(#paint2_linear)"/>
<path d="M97.3001 36.9656C96.9888 37.4259 96.6774 37.7575 96.366 37.9606C96.0547 38.1637 95.6418 38.2652 95.1273 38.2652C94.5723 38.2652 94.112 38.1027 93.7465 37.7778C93.3945 37.4529 93.1305 36.8843 92.9545 36.0721L92.5078 34.0414C92.3453 33.3375 92.1897 32.796 92.0407 32.4169C91.9054 32.0379 91.6955 31.7333 91.4112 31.5031C91.1269 31.273 90.7276 31.1579 90.2132 31.1579H88.284V35.8284C88.284 36.3428 88.3246 36.7151 88.4059 36.9453C88.4871 37.1754 88.636 37.3311 88.8526 37.4123C89.0827 37.4935 89.4415 37.5477 89.9289 37.5748V37.9809C89.3061 37.9403 88.4465 37.92 87.3499 37.92C86.1857 37.92 85.3193 37.9403 84.7507 37.9809V37.5748C85.238 37.5477 85.59 37.4935 85.8066 37.4123C86.0368 37.3311 86.1924 37.1754 86.2737 36.9453C86.3549 36.7151 86.3955 36.3428 86.3955 35.8284V25.7564C86.3955 25.2419 86.3549 24.8696 86.2737 24.6395C86.1924 24.4094 86.0368 24.2537 85.8066 24.1725C85.59 24.0912 85.238 24.0371 84.7507 24.01V23.6039C85.3193 23.6445 86.1451 23.6648 87.2281 23.6648L89.4212 23.6445C89.6784 23.6309 89.9695 23.6242 90.2944 23.6242C91.8647 23.6242 93.0696 23.9559 93.9089 24.6192C94.7618 25.269 95.1883 26.1151 95.1883 27.1575C95.1883 27.6855 95.0596 28.2202 94.8024 28.7617C94.5587 29.2897 94.1391 29.7703 93.5434 30.2035C92.9613 30.6232 92.1964 30.9075 91.2488 31.0564L91.4925 31.097C92.3859 31.2459 93.0358 31.5167 93.4419 31.9092C93.848 32.3018 94.1458 32.9246 94.3354 33.7774L94.843 35.8487C94.9784 36.4714 95.1206 36.9047 95.2695 37.1483C95.4184 37.392 95.6215 37.5138 95.8787 37.5138C96.1088 37.5138 96.2983 37.4529 96.4473 37.3311C96.6097 37.2093 96.7925 37.013 96.9955 36.7422L97.3001 36.9656ZM89.7867 24.01C89.367 24.01 89.0489 24.0574 88.8323 24.1521C88.6292 24.2469 88.4871 24.4161 88.4059 24.6598C88.3246 24.9035 88.284 25.269 88.284 25.7564V30.7518H89.6446C90.9848 30.7518 91.9054 30.4539 92.4063 29.8583C92.9072 29.2626 93.1576 28.4368 93.1576 27.3809C93.1576 26.2708 92.8936 25.4315 92.3656 24.8629C91.8377 24.2943 90.978 24.01 89.7867 24.01Z" fill="url(#paint3_linear)"/>
<path d="M103.096 24.01C102.609 24.0371 102.25 24.0912 102.02 24.1725C101.804 24.2537 101.655 24.4094 101.573 24.6395C101.492 24.8696 101.452 25.2419 101.452 25.7564V35.8284C101.452 36.3428 101.492 36.7151 101.573 36.9453C101.655 37.1754 101.804 37.3311 102.02 37.4123C102.25 37.4935 102.609 37.5477 103.096 37.5748V37.9809C102.474 37.9403 101.614 37.92 100.517 37.92C99.3532 37.92 98.4868 37.9403 97.9182 37.9809V37.5748C98.4056 37.5477 98.7575 37.4935 98.9742 37.4123C99.2043 37.3311 99.36 37.1754 99.4412 36.9453C99.5224 36.7151 99.563 36.3428 99.563 35.8284V25.7564C99.563 25.2419 99.5224 24.8696 99.4412 24.6395C99.36 24.4094 99.2043 24.2537 98.9742 24.1725C98.7575 24.0912 98.4056 24.0371 97.9182 24.01V23.6039C98.4868 23.6445 99.3532 23.6648 100.517 23.6648C101.6 23.6648 102.46 23.6445 103.096 23.6039V24.01Z" fill="url(#paint4_linear)"/>
<path d="M111.322 23.3196C112.134 23.3196 112.824 23.4347 113.393 23.6648C113.961 23.8949 114.517 24.2198 115.058 24.6395C115.207 24.7613 115.336 24.8223 115.444 24.8223C115.715 24.8223 115.891 24.4161 115.972 23.6039H116.439C116.385 24.4838 116.358 26.0407 116.358 28.2744H115.891C115.742 27.3944 115.606 26.7649 115.484 26.3859C115.363 25.9933 115.16 25.621 114.875 25.269C114.469 24.741 113.948 24.3484 113.312 24.0912C112.689 23.8205 112.012 23.6851 111.281 23.6851C110.401 23.6851 109.629 23.9762 108.966 24.5583C108.316 25.1404 107.809 25.973 107.443 27.056C107.078 28.1255 106.895 29.3845 106.895 30.833C106.895 32.3086 107.091 33.5744 107.484 34.6303C107.876 35.6863 108.418 36.4918 109.108 37.0468C109.812 37.5883 110.604 37.8591 111.484 37.8591C112.161 37.8591 112.818 37.7305 113.454 37.4732C114.09 37.216 114.591 36.8302 114.957 36.3158C115.227 35.9367 115.424 35.5306 115.545 35.0974C115.667 34.6642 115.782 34.0008 115.891 33.1073H116.358C116.358 35.4358 116.385 37.0603 116.439 37.9809H115.972C115.931 37.5477 115.87 37.2431 115.789 37.0671C115.721 36.8776 115.62 36.7828 115.484 36.7828C115.376 36.7828 115.234 36.837 115.058 36.9453C114.449 37.3785 113.867 37.7101 113.312 37.9403C112.757 38.1569 112.087 38.2652 111.301 38.2652C110.015 38.2652 108.885 37.9741 107.91 37.392C106.949 36.8099 106.198 35.9706 105.656 34.874C105.128 33.7639 104.864 32.444 104.864 30.9142C104.864 29.4251 105.135 28.1052 105.676 26.9545C106.231 25.8037 106.996 24.9103 107.971 24.274C108.959 23.6377 110.076 23.3196 111.322 23.3196Z" fill="url(#paint5_linear)"/>
<path d="M129.282 36.2752C129.607 37.1145 130.074 37.5477 130.683 37.5748V37.9809C130.142 37.9403 129.418 37.92 128.511 37.92C127.346 37.92 126.48 37.9403 125.911 37.9809V37.5748C126.426 37.5477 126.791 37.4868 127.008 37.392C127.238 37.2837 127.353 37.0942 127.353 36.8234C127.353 36.5933 127.272 36.2752 127.109 35.869L125.871 32.5387H120.957L120.124 34.6912C119.853 35.4223 119.718 35.9773 119.718 36.3564C119.718 36.776 119.86 37.0806 120.144 37.2702C120.442 37.4597 120.889 37.5612 121.485 37.5748V37.9809C120.713 37.9403 119.935 37.92 119.149 37.92C118.54 37.92 118.032 37.9403 117.626 37.9809V37.5748C118.303 37.4123 118.838 36.8234 119.231 35.8081L124.003 23.5023H124.327L129.282 36.2752ZM125.708 32.1326L123.434 26.061L121.119 32.1326H125.708Z" fill="url(#paint6_linear)"/>
<defs>
<linearGradient id="paint0_linear" x1="159.402" y1="0.918517" x2="120.025" y2="11.4903" gradientUnits="userSpaceOnUse">
<stop stop-color="#FFC000"/>
<stop offset="1" stop-color="#FF8A00"/>
</linearGradient>
<linearGradient id="paint1_linear" x1="129.762" y1="23.681" x2="100.483" y2="64.6099" gradientUnits="userSpaceOnUse">
<stop stop-color="#FFC000"/>
<stop offset="1" stop-color="#FF8A00"/>
</linearGradient>
<linearGradient id="paint2_linear" x1="129.762" y1="23.681" x2="100.483" y2="64.6099" gradientUnits="userSpaceOnUse">
<stop stop-color="#FFC000"/>
<stop offset="1" stop-color="#FF8A00"/>
</linearGradient>
<linearGradient id="paint3_linear" x1="129.762" y1="23.681" x2="100.483" y2="64.6099" gradientUnits="userSpaceOnUse">
<stop stop-color="#FFC000"/>
<stop offset="1" stop-color="#FF8A00"/>
</linearGradient>
<linearGradient id="paint4_linear" x1="129.762" y1="23.681" x2="100.483" y2="64.6099" gradientUnits="userSpaceOnUse">
<stop stop-color="#FFC000"/>
<stop offset="1" stop-color="#FF8A00"/>
</linearGradient>
<linearGradient id="paint5_linear" x1="129.762" y1="23.681" x2="100.483" y2="64.6099" gradientUnits="userSpaceOnUse">
<stop stop-color="#FFC000"/>
<stop offset="1" stop-color="#FF8A00"/>
</linearGradient>
<linearGradient id="paint6_linear" x1="129.762" y1="23.681" x2="100.483" y2="64.6099" gradientUnits="userSpaceOnUse">
<stop stop-color="#FFC000"/>
<stop offset="1" stop-color="#FF8A00"/>
</linearGradient>
</defs>
</svg>
