<svg width="21" height="21" viewBox="0 0 21 21" fill="none" xmlns="http://www.w3.org/2000/svg">
<path d="M10.3797 21C15.9795 21 20.5191 16.299 20.5191 10.5C20.5191 4.70101 15.9795 0 10.3797 0C4.77981 0 0.240234 4.70101 0.240234 10.5C0.240234 16.299 4.77981 21 10.3797 21Z" fill="#1590D8"/>
<path d="M15.0081 8.4717C15.0151 8.57253 15.0151 8.67339 15.0151 8.77422C15.0151 11.8497 12.7546 15.3934 8.62316 15.3934C7.35034 15.3934 6.16795 15.0117 5.17334 14.3491C5.35418 14.3707 5.52805 14.3779 5.71585 14.3779C6.76608 14.3779 7.73288 14.0105 8.50492 13.3839C7.51727 13.3623 6.68959 12.6925 6.40442 11.7705C6.54353 11.7921 6.68263 11.8065 6.8287 11.8065C7.0304 11.8065 7.23212 11.7777 7.4199 11.7273C6.39052 11.5112 5.61846 10.5749 5.61846 9.44406V9.41526C5.91753 9.58813 6.26532 9.69616 6.63392 9.71055C6.02881 9.29279 5.63238 8.57974 5.63238 7.77304C5.63238 7.34089 5.74364 6.94474 5.9384 6.59902C7.0443 8.01073 8.70662 8.93265 10.5706 9.0335C10.5358 8.86064 10.515 8.68059 10.515 8.50052C10.515 7.21844 11.5165 6.17407 12.7615 6.17407C13.4084 6.17407 13.9926 6.45497 14.403 6.90874C14.9107 6.80791 15.3976 6.61343 15.8288 6.34694C15.6619 6.88715 15.3072 7.34091 14.8412 7.629C15.2933 7.5786 15.7314 7.44893 16.1348 7.26888C15.8289 7.72983 15.4463 8.14036 15.0081 8.4717Z" fill="white"/>
<mask id="mask0" mask-type="alpha" maskUnits="userSpaceOnUse" x="5" y="6" width="12" height="10">
<path d="M15.0081 8.4717C15.0151 8.57253 15.0151 8.67339 15.0151 8.77422C15.0151 11.8497 12.7546 15.3934 8.62316 15.3934C7.35034 15.3934 6.16795 15.0117 5.17334 14.3491C5.35418 14.3707 5.52805 14.3779 5.71585 14.3779C6.76608 14.3779 7.73288 14.0105 8.50492 13.3839C7.51727 13.3623 6.68959 12.6925 6.40442 11.7705C6.54353 11.7921 6.68263 11.8065 6.8287 11.8065C7.0304 11.8065 7.23212 11.7777 7.4199 11.7273C6.39052 11.5112 5.61846 10.5749 5.61846 9.44406V9.41526C5.91753 9.58813 6.26532 9.69616 6.63392 9.71055C6.02881 9.29279 5.63238 8.57974 5.63238 7.77304C5.63238 7.34089 5.74364 6.94474 5.9384 6.59902C7.0443 8.01073 8.70662 8.93265 10.5706 9.0335C10.5358 8.86064 10.515 8.68059 10.515 8.50052C10.515 7.21844 11.5165 6.17407 12.7615 6.17407C13.4084 6.17407 13.9926 6.45497 14.403 6.90874C14.9107 6.80791 15.3976 6.61343 15.8288 6.34694C15.6619 6.88715 15.3072 7.34091 14.8412 7.629C15.2933 7.5786 15.7314 7.44893 16.1348 7.26888C15.8289 7.72983 15.4463 8.14036 15.0081 8.4717Z" fill="white"/>
</mask>
<g mask="url(#mask0)">
</g>
</svg>
